<svg width="1949" height="1949" xmlns="http://www.w3.org/2000/svg" xmlns:xlink="http://www.w3.org/1999/xlink" xml:space="preserve" overflow="hidden"><defs><clipPath id="clip0"><rect x="0" y="0" width="1949" height="1949"/></clipPath></defs><g clip-path="url(#clip0)"><path d="M0 324.84C-1.24067e-13 145.436 145.436 0 324.84 0L1624.16 0C1803.56-6.20334e-14 1949 145.436 1949 324.84L1949 1624.16C1949 1803.56 1803.56 1949 1624.16 1949L324.84 1949C145.436 1949 0 1803.56 0 1624.16Z" fill="#FFFFFF" fill-rule="evenodd"/><path d="M1179.26 858.18 1179.26 961.968 1233.67 961.968C1253.92 961.968 1269.1 957.433 1279.23 948.362 1289.35 939.291 1294.41 926.528 1294.41 910.074 1294.41 893.62 1289.35 880.857 1279.23 871.786 1269.1 862.715 1253.92 858.18 1233.67 858.18ZM1029.93 743 1243.16 743C1284.08 743 1319.72 749.75 1350.09 763.251 1380.46 776.752 1403.87 796.16 1420.32 821.474 1436.77 846.788 1445 876.322 1445 910.074 1445 943.826 1436.77 973.36 1420.32 998.674 1403.87 1023.99 1380.46 1043.4 1350.09 1056.9 1319.72 1070.4 1284.08 1077.15 1243.16 1077.15L1179.26 1077.15 1179.26 1186 1029.93 1186ZM521 743 670.323 743 670.323 899.948 808.258 899.948 808.258 743 957.581 743 957.581 1186 808.258 1186 808.258 1022.72 670.323 1022.72 670.323 1186 521 1186Z" fill-rule="evenodd"/><path d="M820 315 820 441.684 441.679 441.684 441.679 820 315 820 315 315Z" fill-rule="evenodd"/><path d="M1128 1633 1128 1506.32 1506.32 1506.32 1506.32 1128 1633 1128 1633 1633Z" fill-rule="evenodd"/></g></svg>