<svg width="1949" height="1949" xmlns="http://www.w3.org/2000/svg" xmlns:xlink="http://www.w3.org/1999/xlink" xml:space="preserve" overflow="hidden"><g><path d="M1506.45 1128.27 1506.45 1506.45 1128.27 1506.45 1128.27 1633.09 1633.09 1633.09 1633.09 1128.27ZM1179.12 858.402 1233.52 858.402C1253.76 858.402 1268.94 862.936 1279.06 872.002 1289.18 881.069 1294.24 893.826 1294.24 910.272 1294.24 926.719 1289.18 939.475 1279.06 948.542 1268.94 957.609 1253.76 962.142 1233.52 962.142L1179.12 962.142ZM1029.84 743.277 1029.84 1186.07 1179.12 1186.07 1179.12 1077.27 1243.01 1077.27C1283.91 1077.27 1319.55 1070.52 1349.91 1057.03 1380.27 1043.53 1403.68 1024.13 1420.12 998.83 1436.57 973.528 1444.79 944.009 1444.79 910.272 1444.79 876.536 1436.57 847.016 1420.12 821.714 1403.68 796.412 1380.27 777.013 1349.91 763.519 1319.55 750.024 1283.91 743.277 1243.01 743.277ZM521.038 743.277 521.038 1186.07 670.321 1186.07 670.321 1022.87 808.219 1022.87 808.219 1186.07 957.503 1186.07 957.503 743.277 808.219 743.277 808.219 900.151 670.321 900.151 670.321 743.277ZM315.511 315.511 315.511 820.329 442.144 820.329 442.144 442.149 820.329 442.149 820.329 315.511ZM0 0 1949 0 1949 1949 0 1949Z" fill-rule="evenodd"/></g></svg>